<svg width="317" height="129" viewBox="0 0 317 129" fill="none" xmlns="http://www.w3.org/2000/svg">
<path d="M33.8432 33.9099L0 67.7531V81.3037V94.7876H33.7097H67.4193V111.809V128.831H84.7748H102.13V98.1252V67.4193H68.2871H34.3772L68.0868 33.7097L101.796 1.87308e-05H84.7748H67.7531L33.8432 33.9099Z" fill="white"/>
<path d="M116.148 16.8215V33.7097L132.836 17.0217L149.524 0.333791V17.0217V33.7097L132.836 50.3976L116.148 67.0856V84.2408V101.463H150.192H184.235V84.3076V67.0856L167.213 84.1073L150.192 101.129V84.4411V67.7531L167.213 50.7314L184.235 33.6429V16.8215V3.18289e-05H150.192H116.148V16.8215Z" fill="white"/>
<path d="M216.276 84.5078V101.53L217.811 101.329L219.28 101.129L219.48 84.2408L219.613 67.4194H217.945H216.276V84.5078Z" fill="white"/>
<path d="M253.924 75.029C247.516 77.8326 246.581 87.8454 252.455 91.45C255.392 93.1855 260.599 93.2523 263.469 91.45C269.41 87.8454 269.277 77.5656 263.336 75.029C260.466 73.8943 256.661 73.8943 253.924 75.029ZM262.134 79.8352C265.472 83.1728 262.802 88.7799 257.929 88.7799C254.925 88.7799 252.989 86.8441 252.989 83.7735C252.989 78.7004 258.596 76.2973 262.134 79.8352Z" fill="white"/>
<path d="M303.387 75.0291C297.179 77.8326 295.51 85.7093 300.183 90.382C302.319 92.518 304.121 93.052 308.46 92.6515C312.198 92.251 314.668 90.4487 316.137 86.9776C319.674 78.7672 311.731 71.3577 303.387 75.0291ZM311.063 79.4347C312.799 81.1702 312.799 84.7748 310.997 87.0444C309.128 89.3807 305.656 89.4474 303.387 87.1111C301.184 84.9083 301.251 82.4385 303.654 80.0354C305.99 77.6991 309.061 77.4321 311.063 79.4347Z" fill="white"/>
<path d="M233.698 81.237C233.231 84.8416 232.697 88.9135 232.497 90.3152L232.096 92.8518L234.366 92.6516C236.235 92.518 236.702 92.1175 236.835 90.7825C237.303 86.3769 237.503 86.1099 240.306 86.1099C244.111 86.1099 246.648 83.7736 246.648 80.2357C246.648 75.8968 245.113 74.7621 239.305 74.7621H234.432L233.698 81.237ZM241.575 79.0342C242.776 80.5027 241.375 82.7723 239.238 82.7723C237.903 82.7723 237.57 82.5053 237.903 81.7043C238.104 81.1035 238.304 80.1022 238.304 79.3679C238.304 77.8327 240.44 77.6324 241.575 79.0342Z" fill="white"/>
<path d="M270.812 83.2395C270.278 87.9789 270.011 92.0508 270.345 92.3178C270.612 92.6515 271.546 92.785 272.414 92.6515C273.682 92.518 274.083 91.9173 274.417 89.9147C274.617 88.5797 274.951 87.2446 275.151 87.0444C275.351 86.9109 276.352 88.1124 277.287 89.7812C278.889 92.4513 279.356 92.785 281.359 92.785C282.627 92.785 283.695 92.5848 283.695 92.251C283.695 91.984 282.827 90.4487 281.759 88.7799L279.89 85.7761L281.826 84.0405C284.162 81.8377 284.429 78.1664 282.36 76.0971C281.292 75.0291 280.157 74.762 276.486 74.762H271.88L270.812 83.2395ZM278.822 79.1677C279.356 80.5027 278.288 82.3718 276.753 82.6388C275.952 82.839 275.685 82.3718 275.685 80.5027C275.685 78.5001 275.952 78.0996 277.02 78.0996C277.754 78.0996 278.555 78.5669 278.822 79.1677Z" fill="white"/>
<path d="M285.431 75.8301C284.696 77.6991 284.963 78.0996 287.033 78.0996C288.168 78.0996 289.035 78.2999 289.035 78.5669C288.969 78.9007 288.568 82.038 288.101 85.6426C287.634 89.1804 287.433 92.251 287.567 92.4513C288.168 93.052 290.971 92.785 291.372 92.1175C291.639 91.717 292.106 88.4462 292.506 84.7748L293.241 78.1664L295.31 77.9661C296.845 77.8326 297.446 77.3654 297.58 76.2306C297.78 74.8288 297.646 74.762 291.839 74.762C286.966 74.762 285.764 74.9623 285.431 75.8301Z" fill="white"/>
</svg>
